<svg width="15" height="15" fill="none" xmlns="http://www.w3.org/2000/svg"><g clip-path="url(#clip0)"><path d="M8.085 11.667l6.675-6.675a.815.815 0 00.24-.58.815.815 0 00-.24-.58l-.491-.492a.822.822 0 00-1.16 0L7.502 8.945l-5.61-5.612a.815.815 0 00-.58-.24.816.816 0 00-.581.24l-.491.492a.815.815 0 00-.24.58c0 .22.085.426.24.58l6.68 6.682c.156.155.363.24.583.24.22 0 .427-.085.582-.24z" fill="#000"/></g><defs><clipPath id="clip0"><path fill="#fff" transform="rotate(90 7.5 7.5)" d="M0 0h15v15H0z"/></clipPath></defs></svg>